<?xml version="1.0" encoding="UTF-8" ?>
<svg version="1.1" width="302" height="86" xmlns="http://www.w3.org/2000/svg" shape-rendering="crispEdges">
<rect x="10" y="0" width="4" height="18" fill="#000000" />
<rect x="8" y="2" width="2" height="14" fill="#000000" />
<rect x="14" y="2" width="4" height="18" fill="#000000" />
<rect x="6" y="4" width="2" height="12" fill="#000000" />
<rect x="18" y="4" width="4" height="76" fill="#000000" />
<rect x="38" y="4" width="4" height="14" fill="#000000" />
<rect x="72" y="4" width="4" height="18" fill="#000000" />
<rect x="4" y="6" width="2" height="8" fill="#000000" />
<rect x="22" y="6" width="4" height="76" fill="#000000" />
<rect x="36" y="6" width="2" height="12" fill="#000000" />
<rect x="42" y="6" width="4" height="14" fill="#000000" />
<rect x="70" y="6" width="2" height="14" fill="#000000" />
<rect x="76" y="6" width="4" height="18" fill="#000000" />
<rect x="2" y="8" width="2" height="6" fill="#000000" />
<rect x="26" y="8" width="2" height="76" fill="#000000" />
<rect x="34" y="8" width="2" height="12" fill="#000000" />
<rect x="46" y="8" width="4" height="14" fill="#000000" />
<rect x="68" y="8" width="2" height="12" fill="#000000" />
<rect x="80" y="8" width="4" height="68" fill="#000000" />
<rect x="0" y="10" width="2" height="2" fill="#000000" />
<rect x="28" y="10" width="2" height="76" fill="#000000" />
<rect x="32" y="10" width="2" height="12" fill="#000000" />
<rect x="50" y="10" width="4" height="30" fill="#000000" />
<rect x="66" y="10" width="2" height="8" fill="#000000" />
<rect x="84" y="10" width="4" height="68" fill="#000000" />
<rect x="30" y="12" width="2" height="12" fill="#000000" />
<rect x="54" y="12" width="4" height="30" fill="#000000" />
<rect x="64" y="12" width="2" height="4" fill="#000000" />
<rect x="88" y="12" width="6" height="4" fill="#000000" />
<rect x="58" y="14" width="6" height="4" fill="#000000" />
<rect x="160" y="14" width="4" height="8" fill="#000000" />
<rect x="256" y="14" width="12" height="4" fill="#000000" />
<rect x="88" y="16" width="4" height="62" fill="#000000" />
<rect x="158" y="16" width="2" height="4" fill="#000000" />
<rect x="164" y="16" width="6" height="52" fill="#000000" />
<rect x="172" y="16" width="2" height="2" fill="#000000" />
<rect x="254" y="16" width="2" height="16" fill="#000000" />
<rect x="268" y="16" width="2" height="16" fill="#000000" />
<rect x="40" y="18" width="2" height="2" fill="#000000" />
<rect x="58" y="18" width="4" height="24" fill="#000000" />
<rect x="170" y="18" width="2" height="2" fill="#000000" />
<rect x="252" y="18" width="2" height="12" fill="#000000" />
<rect x="256" y="18" width="2" height="2" fill="#000000" />
<rect x="266" y="18" width="2" height="2" fill="#000000" />
<rect x="270" y="18" width="2" height="12" fill="#000000" />
<rect x="16" y="20" width="2" height="56" fill="#000000" />
<rect x="44" y="20" width="2" height="2" fill="#000000" />
<rect x="48" y="22" width="2" height="2" fill="#000000" />
<rect x="162" y="22" width="2" height="46" fill="#000000" />
<rect x="248" y="22" width="4" height="6" fill="#000000" />
<rect x="256" y="22" width="12" height="2" fill="#000000" />
<rect x="272" y="22" width="4" height="6" fill="#000000" />
<rect x="246" y="24" width="2" height="2" fill="#000000" />
<rect x="276" y="24" width="2" height="2" fill="#000000" />
<rect x="256" y="26" width="12" height="2" fill="#000000" />
<rect x="174" y="28" width="6" height="8" fill="#000000" />
<rect x="256" y="28" width="2" height="6" fill="#000000" />
<rect x="266" y="28" width="2" height="6" fill="#000000" />
<rect x="172" y="30" width="2" height="4" fill="#000000" />
<rect x="180" y="30" width="6" height="8" fill="#000000" />
<rect x="258" y="30" width="8" height="4" fill="#000000" />
<rect x="46" y="32" width="4" height="6" fill="#000000" />
<rect x="62" y="32" width="4" height="6" fill="#000000" />
<rect x="170" y="32" width="2" height="2" fill="#000000" />
<rect x="44" y="34" width="2" height="2" fill="#000000" />
<rect x="66" y="34" width="2" height="2" fill="#000000" />
<rect x="106" y="34" width="6" height="6" fill="#000000" />
<rect x="140" y="34" width="6" height="8" fill="#000000" />
<rect x="280" y="34" width="6" height="6" fill="#000000" />
<rect x="104" y="36" width="2" height="30" fill="#000000" />
<rect x="112" y="36" width="6" height="6" fill="#000000" />
<rect x="130" y="36" width="10" height="4" fill="#000000" />
<rect x="146" y="36" width="12" height="4" fill="#000000" />
<rect x="176" y="36" width="4" height="16" fill="#000000" />
<rect x="204" y="36" width="10" height="6" fill="#000000" />
<rect x="226" y="36" width="6" height="8" fill="#000000" />
<rect x="240" y="36" width="4" height="8" fill="#000000" />
<rect x="258" y="36" width="4" height="28" fill="#000000" />
<rect x="278" y="36" width="2" height="30" fill="#000000" />
<rect x="286" y="36" width="6" height="6" fill="#000000" />
<rect x="62" y="38" width="2" height="2" fill="#000000" />
<rect x="102" y="38" width="2" height="26" fill="#000000" />
<rect x="118" y="38" width="6" height="4" fill="#000000" />
<rect x="180" y="38" width="4" height="2" fill="#000000" />
<rect x="192" y="38" width="6" height="2" fill="#000000" />
<rect x="200" y="38" width="4" height="22" fill="#000000" />
<rect x="214" y="38" width="4" height="6" fill="#000000" />
<rect x="224" y="38" width="2" height="6" fill="#000000" />
<rect x="232" y="38" width="8" height="4" fill="#000000" />
<rect x="244" y="38" width="4" height="6" fill="#000000" />
<rect x="256" y="38" width="2" height="6" fill="#000000" />
<rect x="262" y="38" width="4" height="26" fill="#000000" />
<rect x="276" y="38" width="2" height="26" fill="#000000" />
<rect x="292" y="38" width="6" height="4" fill="#000000" />
<rect x="100" y="40" width="2" height="22" fill="#000000" />
<rect x="110" y="40" width="2" height="2" fill="#000000" />
<rect x="132" y="40" width="8" height="14" fill="#000000" />
<rect x="146" y="40" width="10" height="2" fill="#000000" />
<rect x="180" y="40" width="2" height="2" fill="#000000" />
<rect x="194" y="40" width="6" height="2" fill="#000000" />
<rect x="218" y="40" width="2" height="4" fill="#000000" />
<rect x="222" y="40" width="2" height="4" fill="#000000" />
<rect x="248" y="40" width="2" height="2" fill="#000000" />
<rect x="254" y="40" width="2" height="2" fill="#000000" />
<rect x="266" y="40" width="2" height="2" fill="#000000" />
<rect x="274" y="40" width="2" height="22" fill="#000000" />
<rect x="284" y="40" width="2" height="2" fill="#000000" />
<rect x="58" y="42" width="2" height="2" fill="#000000" />
<rect x="114" y="42" width="8" height="2" fill="#000000" />
<rect x="140" y="42" width="4" height="2" fill="#000000" />
<rect x="146" y="42" width="8" height="2" fill="#000000" />
<rect x="174" y="42" width="2" height="10" fill="#000000" />
<rect x="196" y="42" width="4" height="18" fill="#000000" />
<rect x="210" y="42" width="4" height="2" fill="#000000" />
<rect x="232" y="42" width="6" height="22" fill="#000000" />
<rect x="288" y="42" width="8" height="2" fill="#000000" />
<rect x="116" y="44" width="6" height="18" fill="#000000" />
<rect x="148" y="44" width="4" height="2" fill="#000000" />
<rect x="172" y="44" width="2" height="6" fill="#000000" />
<rect x="180" y="44" width="4" height="24" fill="#000000" />
<rect x="212" y="44" width="4" height="2" fill="#000000" />
<rect x="228" y="44" width="4" height="2" fill="#000000" />
<rect x="244" y="44" width="2" height="2" fill="#000000" />
<rect x="290" y="44" width="6" height="18" fill="#000000" />
<rect x="42" y="46" width="8" height="8" fill="#000000" />
<rect x="60" y="46" width="8" height="8" fill="#000000" />
<rect x="146" y="46" width="4" height="2" fill="#000000" />
<rect x="170" y="46" width="2" height="4" fill="#000000" />
<rect x="184" y="46" width="4" height="22" fill="#000000" />
<rect x="210" y="46" width="4" height="2" fill="#000000" />
<rect x="230" y="46" width="2" height="16" fill="#000000" />
<rect x="38" y="48" width="4" height="4" fill="#000000" />
<rect x="50" y="48" width="2" height="4" fill="#000000" />
<rect x="58" y="48" width="2" height="4" fill="#000000" />
<rect x="68" y="48" width="4" height="4" fill="#000000" />
<rect x="144" y="48" width="4" height="4" fill="#000000" />
<rect x="188" y="48" width="2" height="2" fill="#000000" />
<rect x="206" y="48" width="4" height="2" fill="#000000" />
<rect x="36" y="50" width="2" height="2" fill="#000000" />
<rect x="72" y="50" width="2" height="2" fill="#000000" />
<rect x="130" y="50" width="2" height="4" fill="#000000" />
<rect x="140" y="50" width="4" height="4" fill="#000000" />
<rect x="148" y="50" width="8" height="12" fill="#000000" />
<rect x="204" y="50" width="2" height="2" fill="#000000" />
<rect x="30" y="52" width="2" height="8" fill="#000000" />
<rect x="40" y="52" width="2" height="2" fill="#000000" />
<rect x="68" y="52" width="2" height="2" fill="#000000" />
<rect x="78" y="52" width="2" height="8" fill="#000000" />
<rect x="146" y="52" width="2" height="2" fill="#000000" />
<rect x="136" y="54" width="6" height="10" fill="#000000" />
<rect x="204" y="54" width="2" height="8" fill="#000000" />
<rect x="32" y="56" width="2" height="8" fill="#000000" />
<rect x="76" y="56" width="2" height="8" fill="#000000" />
<rect x="114" y="56" width="2" height="8" fill="#000000" />
<rect x="122" y="56" width="2" height="10" fill="#000000" />
<rect x="134" y="56" width="2" height="10" fill="#000000" />
<rect x="142" y="56" width="4" height="8" fill="#000000" />
<rect x="206" y="56" width="4" height="8" fill="#000000" />
<rect x="214" y="56" width="6" height="6" fill="#000000" />
<rect x="228" y="56" width="2" height="6" fill="#000000" />
<rect x="238" y="56" width="4" height="6" fill="#000000" />
<rect x="288" y="56" width="2" height="8" fill="#000000" />
<rect x="296" y="56" width="2" height="10" fill="#000000" />
<rect x="110" y="58" width="4" height="6" fill="#000000" />
<rect x="124" y="58" width="2" height="6" fill="#000000" />
<rect x="132" y="58" width="2" height="8" fill="#000000" />
<rect x="146" y="58" width="2" height="8" fill="#000000" />
<rect x="194" y="58" width="2" height="4" fill="#000000" />
<rect x="210" y="58" width="4" height="6" fill="#000000" />
<rect x="220" y="58" width="2" height="2" fill="#000000" />
<rect x="226" y="58" width="2" height="2" fill="#000000" />
<rect x="242" y="58" width="2" height="2" fill="#000000" />
<rect x="256" y="58" width="2" height="6" fill="#000000" />
<rect x="266" y="58" width="2" height="4" fill="#000000" />
<rect x="284" y="58" width="4" height="6" fill="#000000" />
<rect x="298" y="58" width="2" height="6" fill="#000000" />
<rect x="34" y="60" width="2" height="8" fill="#000000" />
<rect x="74" y="60" width="2" height="8" fill="#000000" />
<rect x="106" y="60" width="4" height="6" fill="#000000" />
<rect x="126" y="60" width="2" height="2" fill="#000000" />
<rect x="130" y="60" width="2" height="6" fill="#000000" />
<rect x="196" y="60" width="2" height="2" fill="#000000" />
<rect x="202" y="60" width="2" height="2" fill="#000000" />
<rect x="254" y="60" width="2" height="2" fill="#000000" />
<rect x="268" y="60" width="2" height="2" fill="#000000" />
<rect x="280" y="60" width="4" height="6" fill="#000000" />
<rect x="300" y="60" width="2" height="2" fill="#000000" />
<rect x="48" y="62" width="14" height="8" fill="#000000" />
<rect x="118" y="62" width="4" height="2" fill="#000000" />
<rect x="148" y="62" width="4" height="2" fill="#000000" />
<rect x="214" y="62" width="2" height="2" fill="#000000" />
<rect x="292" y="62" width="4" height="2" fill="#000000" />
<rect x="36" y="64" width="2" height="6" fill="#000000" />
<rect x="46" y="64" width="2" height="8" fill="#000000" />
<rect x="62" y="64" width="2" height="8" fill="#000000" />
<rect x="72" y="64" width="2" height="6" fill="#000000" />
<rect x="110" y="64" width="2" height="2" fill="#000000" />
<rect x="120" y="64" width="2" height="2" fill="#000000" />
<rect x="136" y="64" width="2" height="2" fill="#000000" />
<rect x="144" y="64" width="2" height="2" fill="#000000" />
<rect x="160" y="64" width="2" height="2" fill="#000000" />
<rect x="170" y="64" width="2" height="2" fill="#000000" />
<rect x="178" y="64" width="2" height="2" fill="#000000" />
<rect x="188" y="64" width="2" height="2" fill="#000000" />
<rect x="208" y="64" width="4" height="2" fill="#000000" />
<rect x="234" y="64" width="2" height="2" fill="#000000" />
<rect x="260" y="64" width="4" height="2" fill="#000000" />
<rect x="284" y="64" width="2" height="2" fill="#000000" />
<rect x="294" y="64" width="2" height="2" fill="#000000" />
<rect x="44" y="66" width="2" height="4" fill="#000000" />
<rect x="64" y="66" width="2" height="4" fill="#000000" />
<rect x="78" y="66" width="2" height="8" fill="#000000" />
<rect x="92" y="66" width="2" height="10" fill="#000000" />
<rect x="38" y="68" width="2" height="4" fill="#000000" />
<rect x="70" y="68" width="2" height="4" fill="#000000" />
<rect x="76" y="68" width="2" height="6" fill="#000000" />
<rect x="94" y="68" width="2" height="6" fill="#000000" />
<rect x="166" y="68" width="2" height="2" fill="#000000" />
<rect x="182" y="68" width="2" height="2" fill="#000000" />
<rect x="40" y="70" width="2" height="4" fill="#000000" />
<rect x="48" y="70" width="2" height="2" fill="#000000" />
<rect x="60" y="70" width="2" height="2" fill="#000000" />
<rect x="68" y="70" width="2" height="4" fill="#000000" />
<rect x="74" y="70" width="2" height="2" fill="#000000" />
<rect x="96" y="70" width="2" height="2" fill="#000000" />
<rect x="42" y="72" width="2" height="4" fill="#000000" />
<rect x="66" y="72" width="2" height="4" fill="#000000" />
<rect x="44" y="74" width="2" height="4" fill="#000000" />
<rect x="64" y="74" width="2" height="4" fill="#000000" />
<rect x="46" y="76" width="2" height="4" fill="#000000" />
<rect x="62" y="76" width="2" height="4" fill="#000000" />
<rect x="48" y="78" width="4" height="4" fill="#000000" />
<rect x="58" y="78" width="4" height="4" fill="#000000" />
<rect x="88" y="78" width="2" height="2" fill="#000000" />
<rect x="20" y="80" width="2" height="2" fill="#000000" />
<rect x="52" y="80" width="6" height="4" fill="#000000" />
<rect x="24" y="82" width="2" height="2" fill="#000000" />
<rect x="30" y="82" width="2" height="4" fill="#000000" />
<rect x="32" y="84" width="2" height="2" fill="#000000" />
</svg>