<?xml version="1.0" encoding="UTF-8" ?>
<svg version="1.1" width="310" height="94" xmlns="http://www.w3.org/2000/svg" shape-rendering="crispEdges">
<rect x="10" y="0" width="12" height="4" fill="#000000" />
<rect x="8" y="2" width="2" height="8" fill="#000000" />
<rect x="22" y="2" width="4" height="6" fill="#000000" />
<rect x="40" y="2" width="8" height="6" fill="#000000" />
<rect x="74" y="2" width="8" height="6" fill="#000000" />
<rect x="6" y="4" width="2" height="8" fill="#000000" />
<rect x="10" y="4" width="4" height="2" fill="#000000" />
<rect x="14" y="4" width="4" height="18" fill="#FFFFFF" />
<rect x="18" y="4" width="4" height="2" fill="#000000" />
<rect x="26" y="4" width="4" height="6" fill="#000000" />
<rect x="38" y="4" width="2" height="8" fill="#000000" />
<rect x="48" y="4" width="2" height="6" fill="#000000" />
<rect x="72" y="4" width="2" height="8" fill="#000000" />
<rect x="82" y="4" width="2" height="6" fill="#000000" />
<rect x="4" y="6" width="2" height="8" fill="#000000" />
<rect x="10" y="6" width="2" height="2" fill="#000000" />
<rect x="12" y="6" width="2" height="14" fill="#FFFFFF" />
<rect x="18" y="6" width="4" height="18" fill="#FFFFFF" />
<rect x="30" y="6" width="4" height="6" fill="#000000" />
<rect x="36" y="6" width="2" height="8" fill="#000000" />
<rect x="50" y="6" width="4" height="6" fill="#000000" />
<rect x="70" y="6" width="2" height="8" fill="#000000" />
<rect x="84" y="6" width="4" height="6" fill="#000000" />
<rect x="2" y="8" width="2" height="14" fill="#000000" />
<rect x="10" y="8" width="2" height="12" fill="#FFFFFF" />
<rect x="22" y="8" width="4" height="76" fill="#FFFFFF" />
<rect x="34" y="8" width="2" height="8" fill="#000000" />
<rect x="40" y="8" width="2" height="2" fill="#000000" />
<rect x="42" y="8" width="4" height="14" fill="#FFFFFF" />
<rect x="46" y="8" width="2" height="2" fill="#000000" />
<rect x="54" y="8" width="4" height="6" fill="#000000" />
<rect x="68" y="8" width="2" height="8" fill="#000000" />
<rect x="74" y="8" width="2" height="2" fill="#000000" />
<rect x="76" y="8" width="4" height="18" fill="#FFFFFF" />
<rect x="80" y="8" width="2" height="2" fill="#000000" />
<rect x="88" y="8" width="4" height="6" fill="#000000" />
<rect x="0" y="10" width="2" height="10" fill="#000000" />
<rect x="8" y="10" width="2" height="8" fill="#FFFFFF" />
<rect x="26" y="10" width="4" height="76" fill="#FFFFFF" />
<rect x="40" y="10" width="2" height="12" fill="#FFFFFF" />
<rect x="46" y="10" width="4" height="14" fill="#FFFFFF" />
<rect x="58" y="10" width="4" height="6" fill="#000000" />
<rect x="66" y="10" width="2" height="8" fill="#000000" />
<rect x="74" y="10" width="2" height="14" fill="#FFFFFF" />
<rect x="80" y="10" width="4" height="18" fill="#FFFFFF" />
<rect x="92" y="10" width="4" height="6" fill="#000000" />
<rect x="6" y="12" width="2" height="6" fill="#FFFFFF" />
<rect x="30" y="12" width="2" height="76" fill="#FFFFFF" />
<rect x="32" y="12" width="2" height="2" fill="#000000" />
<rect x="38" y="12" width="2" height="12" fill="#FFFFFF" />
<rect x="50" y="12" width="4" height="14" fill="#FFFFFF" />
<rect x="62" y="12" width="4" height="6" fill="#000000" />
<rect x="72" y="12" width="2" height="12" fill="#FFFFFF" />
<rect x="84" y="12" width="4" height="68" fill="#FFFFFF" />
<rect x="96" y="12" width="6" height="4" fill="#000000" />
<rect x="258" y="12" width="16" height="6" fill="#000000" />
<rect x="4" y="14" width="2" height="2" fill="#FFFFFF" />
<rect x="32" y="14" width="2" height="76" fill="#FFFFFF" />
<rect x="36" y="14" width="2" height="12" fill="#FFFFFF" />
<rect x="54" y="14" width="4" height="30" fill="#FFFFFF" />
<rect x="70" y="14" width="2" height="8" fill="#FFFFFF" />
<rect x="88" y="14" width="4" height="68" fill="#FFFFFF" />
<rect x="160" y="14" width="12" height="4" fill="#000000" />
<rect x="256" y="14" width="2" height="8" fill="#000000" />
<rect x="274" y="14" width="2" height="8" fill="#000000" />
<rect x="4" y="16" width="2" height="6" fill="#000000" />
<rect x="34" y="16" width="2" height="12" fill="#FFFFFF" />
<rect x="58" y="16" width="4" height="30" fill="#FFFFFF" />
<rect x="68" y="16" width="2" height="4" fill="#FFFFFF" />
<rect x="92" y="16" width="6" height="4" fill="#FFFFFF" />
<rect x="98" y="16" width="4" height="8" fill="#000000" />
<rect x="158" y="16" width="2" height="12" fill="#000000" />
<rect x="172" y="16" width="10" height="4" fill="#000000" />
<rect x="254" y="16" width="2" height="10" fill="#000000" />
<rect x="276" y="16" width="2" height="10" fill="#000000" />
<rect x="6" y="18" width="4" height="6" fill="#000000" />
<rect x="62" y="18" width="6" height="4" fill="#FFFFFF" />
<rect x="160" y="18" width="4" height="2" fill="#000000" />
<rect x="164" y="18" width="4" height="8" fill="#FFFFFF" />
<rect x="168" y="18" width="4" height="2" fill="#000000" />
<rect x="252" y="18" width="2" height="8" fill="#000000" />
<rect x="258" y="18" width="2" height="2" fill="#000000" />
<rect x="260" y="18" width="12" height="4" fill="#FFFFFF" />
<rect x="272" y="18" width="2" height="2" fill="#000000" />
<rect x="278" y="18" width="2" height="8" fill="#000000" />
<rect x="10" y="20" width="4" height="6" fill="#000000" />
<rect x="68" y="20" width="2" height="16" fill="#000000" />
<rect x="92" y="20" width="4" height="62" fill="#FFFFFF" />
<rect x="96" y="20" width="2" height="50" fill="#000000" />
<rect x="160" y="20" width="2" height="10" fill="#000000" />
<rect x="162" y="20" width="2" height="4" fill="#FFFFFF" />
<rect x="168" y="20" width="6" height="52" fill="#FFFFFF" />
<rect x="174" y="20" width="2" height="2" fill="#000000" />
<rect x="176" y="20" width="2" height="2" fill="#FFFFFF" />
<rect x="178" y="20" width="4" height="6" fill="#000000" />
<rect x="258" y="20" width="2" height="16" fill="#FFFFFF" />
<rect x="272" y="20" width="2" height="16" fill="#FFFFFF" />
<rect x="14" y="22" width="4" height="6" fill="#000000" />
<rect x="40" y="22" width="4" height="30" fill="#000000" />
<rect x="44" y="22" width="2" height="2" fill="#FFFFFF" />
<rect x="62" y="22" width="4" height="24" fill="#FFFFFF" />
<rect x="66" y="22" width="2" height="14" fill="#000000" />
<rect x="70" y="22" width="2" height="16" fill="#000000" />
<rect x="174" y="22" width="2" height="2" fill="#FFFFFF" />
<rect x="176" y="22" width="2" height="12" fill="#000000" />
<rect x="248" y="22" width="4" height="6" fill="#000000" />
<rect x="256" y="22" width="2" height="12" fill="#FFFFFF" />
<rect x="260" y="22" width="2" height="2" fill="#FFFFFF" />
<rect x="262" y="22" width="8" height="4" fill="#000000" />
<rect x="270" y="22" width="2" height="2" fill="#FFFFFF" />
<rect x="274" y="22" width="2" height="12" fill="#FFFFFF" />
<rect x="280" y="22" width="4" height="6" fill="#000000" />
<rect x="18" y="24" width="2" height="64" fill="#000000" />
<rect x="20" y="24" width="2" height="56" fill="#FFFFFF" />
<rect x="38" y="24" width="2" height="40" fill="#000000" />
<rect x="44" y="24" width="4" height="26" fill="#000000" />
<rect x="48" y="24" width="2" height="2" fill="#FFFFFF" />
<rect x="72" y="24" width="4" height="28" fill="#000000" />
<rect x="98" y="24" width="2" height="48" fill="#000000" />
<rect x="162" y="24" width="2" height="52" fill="#000000" />
<rect x="174" y="24" width="2" height="12" fill="#000000" />
<rect x="246" y="24" width="2" height="10" fill="#000000" />
<rect x="260" y="24" width="2" height="2" fill="#000000" />
<rect x="270" y="24" width="2" height="2" fill="#000000" />
<rect x="284" y="24" width="2" height="14" fill="#000000" />
<rect x="36" y="26" width="2" height="34" fill="#000000" />
<rect x="48" y="26" width="4" height="10" fill="#000000" />
<rect x="52" y="26" width="2" height="2" fill="#FFFFFF" />
<rect x="76" y="26" width="4" height="28" fill="#000000" />
<rect x="164" y="26" width="2" height="42" fill="#000000" />
<rect x="166" y="26" width="2" height="46" fill="#FFFFFF" />
<rect x="178" y="26" width="2" height="6" fill="#000000" />
<rect x="252" y="26" width="4" height="6" fill="#FFFFFF" />
<rect x="260" y="26" width="12" height="2" fill="#FFFFFF" />
<rect x="276" y="26" width="4" height="6" fill="#FFFFFF" />
<rect x="16" y="28" width="2" height="56" fill="#000000" />
<rect x="34" y="28" width="2" height="28" fill="#000000" />
<rect x="52" y="28" width="2" height="8" fill="#000000" />
<rect x="80" y="28" width="4" height="28" fill="#000000" />
<rect x="180" y="28" width="8" height="4" fill="#000000" />
<rect x="248" y="28" width="2" height="14" fill="#000000" />
<rect x="250" y="28" width="2" height="2" fill="#FFFFFF" />
<rect x="260" y="28" width="12" height="2" fill="#000000" />
<rect x="280" y="28" width="2" height="2" fill="#FFFFFF" />
<rect x="282" y="28" width="2" height="12" fill="#000000" />
<rect x="188" y="30" width="6" height="4" fill="#000000" />
<rect x="250" y="30" width="2" height="12" fill="#000000" />
<rect x="260" y="30" width="12" height="2" fill="#FFFFFF" />
<rect x="280" y="30" width="2" height="12" fill="#000000" />
<rect x="178" y="32" width="6" height="8" fill="#FFFFFF" />
<rect x="184" y="32" width="4" height="2" fill="#000000" />
<rect x="252" y="32" width="4" height="12" fill="#000000" />
<rect x="260" y="32" width="2" height="6" fill="#FFFFFF" />
<rect x="262" y="32" width="8" height="2" fill="#000000" />
<rect x="270" y="32" width="2" height="6" fill="#FFFFFF" />
<rect x="276" y="32" width="4" height="12" fill="#000000" />
<rect x="106" y="34" width="14" height="4" fill="#000000" />
<rect x="140" y="34" width="14" height="4" fill="#000000" />
<rect x="176" y="34" width="2" height="4" fill="#FFFFFF" />
<rect x="184" y="34" width="6" height="8" fill="#FFFFFF" />
<rect x="190" y="34" width="4" height="16" fill="#000000" />
<rect x="256" y="34" width="2" height="18" fill="#000000" />
<rect x="262" y="34" width="8" height="4" fill="#FFFFFF" />
<rect x="274" y="34" width="2" height="36" fill="#000000" />
<rect x="286" y="34" width="8" height="4" fill="#000000" />
<rect x="48" y="36" width="2" height="2" fill="#000000" />
<rect x="50" y="36" width="4" height="6" fill="#FFFFFF" />
<rect x="66" y="36" width="4" height="6" fill="#FFFFFF" />
<rect x="104" y="36" width="2" height="8" fill="#000000" />
<rect x="120" y="36" width="6" height="4" fill="#000000" />
<rect x="130" y="36" width="10" height="4" fill="#000000" />
<rect x="154" y="36" width="8" height="4" fill="#000000" />
<rect x="174" y="36" width="2" height="2" fill="#FFFFFF" />
<rect x="204" y="36" width="18" height="4" fill="#000000" />
<rect x="226" y="36" width="22" height="4" fill="#000000" />
<rect x="258" y="36" width="2" height="8" fill="#000000" />
<rect x="272" y="36" width="2" height="28" fill="#000000" />
<rect x="294" y="36" width="6" height="4" fill="#000000" />
<rect x="48" y="38" width="2" height="2" fill="#FFFFFF" />
<rect x="70" y="38" width="2" height="2" fill="#FFFFFF" />
<rect x="102" y="38" width="2" height="44" fill="#000000" />
<rect x="106" y="38" width="4" height="2" fill="#000000" />
<rect x="110" y="38" width="6" height="6" fill="#FFFFFF" />
<rect x="116" y="38" width="4" height="2" fill="#000000" />
<rect x="126" y="38" width="4" height="4" fill="#000000" />
<rect x="140" y="38" width="4" height="2" fill="#000000" />
<rect x="144" y="38" width="6" height="8" fill="#FFFFFF" />
<rect x="150" y="38" width="4" height="2" fill="#000000" />
<rect x="174" y="38" width="4" height="10" fill="#000000" />
<rect x="194" y="38" width="10" height="4" fill="#000000" />
<rect x="222" y="38" width="4" height="6" fill="#000000" />
<rect x="260" y="38" width="12" height="2" fill="#000000" />
<rect x="284" y="38" width="6" height="6" fill="#FFFFFF" />
<rect x="290" y="38" width="4" height="2" fill="#000000" />
<rect x="300" y="38" width="6" height="4" fill="#000000" />
<rect x="48" y="40" width="2" height="10" fill="#000000" />
<rect x="70" y="40" width="2" height="10" fill="#000000" />
<rect x="100" y="40" width="2" height="34" fill="#000000" />
<rect x="106" y="40" width="2" height="2" fill="#000000" />
<rect x="108" y="40" width="2" height="30" fill="#FFFFFF" />
<rect x="116" y="40" width="6" height="6" fill="#FFFFFF" />
<rect x="122" y="40" width="4" height="2" fill="#000000" />
<rect x="130" y="40" width="4" height="24" fill="#000000" />
<rect x="134" y="40" width="10" height="4" fill="#FFFFFF" />
<rect x="150" y="40" width="12" height="4" fill="#FFFFFF" />
<rect x="178" y="40" width="2" height="6" fill="#000000" />
<rect x="180" y="40" width="4" height="16" fill="#FFFFFF" />
<rect x="204" y="40" width="4" height="2" fill="#000000" />
<rect x="208" y="40" width="10" height="6" fill="#FFFFFF" />
<rect x="218" y="40" width="4" height="2" fill="#000000" />
<rect x="226" y="40" width="4" height="2" fill="#000000" />
<rect x="230" y="40" width="6" height="8" fill="#FFFFFF" />
<rect x="236" y="40" width="8" height="2" fill="#000000" />
<rect x="244" y="40" width="4" height="8" fill="#FFFFFF" />
<rect x="260" y="40" width="2" height="2" fill="#000000" />
<rect x="262" y="40" width="4" height="28" fill="#FFFFFF" />
<rect x="266" y="40" width="6" height="2" fill="#000000" />
<rect x="282" y="40" width="2" height="30" fill="#FFFFFF" />
<rect x="290" y="40" width="6" height="6" fill="#FFFFFF" />
<rect x="296" y="40" width="4" height="2" fill="#000000" />
<rect x="50" y="42" width="4" height="8" fill="#000000" />
<rect x="66" y="42" width="2" height="2" fill="#FFFFFF" />
<rect x="68" y="42" width="2" height="8" fill="#000000" />
<rect x="106" y="42" width="2" height="26" fill="#FFFFFF" />
<rect x="122" y="42" width="6" height="4" fill="#FFFFFF" />
<rect x="128" y="42" width="2" height="20" fill="#000000" />
<rect x="184" y="42" width="4" height="2" fill="#FFFFFF" />
<rect x="188" y="42" width="2" height="8" fill="#000000" />
<rect x="194" y="42" width="2" height="34" fill="#000000" />
<rect x="196" y="42" width="6" height="2" fill="#FFFFFF" />
<rect x="202" y="42" width="2" height="2" fill="#000000" />
<rect x="204" y="42" width="4" height="22" fill="#FFFFFF" />
<rect x="218" y="42" width="4" height="6" fill="#FFFFFF" />
<rect x="226" y="42" width="2" height="2" fill="#000000" />
<rect x="228" y="42" width="2" height="6" fill="#FFFFFF" />
<rect x="236" y="42" width="8" height="4" fill="#FFFFFF" />
<rect x="248" y="42" width="4" height="6" fill="#FFFFFF" />
<rect x="260" y="42" width="2" height="6" fill="#FFFFFF" />
<rect x="266" y="42" width="4" height="26" fill="#FFFFFF" />
<rect x="270" y="42" width="2" height="2" fill="#000000" />
<rect x="280" y="42" width="2" height="26" fill="#FFFFFF" />
<rect x="296" y="42" width="6" height="4" fill="#FFFFFF" />
<rect x="302" y="42" width="4" height="8" fill="#000000" />
<rect x="54" y="44" width="4" height="8" fill="#000000" />
<rect x="66" y="44" width="2" height="6" fill="#000000" />
<rect x="104" y="44" width="2" height="22" fill="#FFFFFF" />
<rect x="110" y="44" width="4" height="20" fill="#000000" />
<rect x="114" y="44" width="2" height="2" fill="#FFFFFF" />
<rect x="134" y="44" width="2" height="10" fill="#000000" />
<rect x="136" y="44" width="8" height="14" fill="#FFFFFF" />
<rect x="150" y="44" width="10" height="2" fill="#FFFFFF" />
<rect x="160" y="44" width="2" height="30" fill="#000000" />
<rect x="184" y="44" width="2" height="2" fill="#FFFFFF" />
<rect x="186" y="44" width="2" height="4" fill="#000000" />
<rect x="196" y="44" width="2" height="30" fill="#000000" />
<rect x="198" y="44" width="6" height="2" fill="#FFFFFF" />
<rect x="222" y="44" width="2" height="4" fill="#FFFFFF" />
<rect x="224" y="44" width="2" height="18" fill="#000000" />
<rect x="226" y="44" width="2" height="4" fill="#FFFFFF" />
<rect x="252" y="44" width="2" height="2" fill="#FFFFFF" />
<rect x="254" y="44" width="2" height="8" fill="#000000" />
<rect x="258" y="44" width="2" height="2" fill="#FFFFFF" />
<rect x="270" y="44" width="2" height="2" fill="#FFFFFF" />
<rect x="276" y="44" width="2" height="28" fill="#000000" />
<rect x="278" y="44" width="2" height="22" fill="#FFFFFF" />
<rect x="284" y="44" width="4" height="20" fill="#000000" />
<rect x="288" y="44" width="2" height="2" fill="#FFFFFF" />
<rect x="58" y="46" width="4" height="20" fill="#000000" />
<rect x="62" y="46" width="2" height="2" fill="#FFFFFF" />
<rect x="64" y="46" width="2" height="4" fill="#000000" />
<rect x="114" y="46" width="4" height="16" fill="#000000" />
<rect x="118" y="46" width="8" height="2" fill="#FFFFFF" />
<rect x="126" y="46" width="2" height="14" fill="#000000" />
<rect x="144" y="46" width="4" height="2" fill="#FFFFFF" />
<rect x="148" y="46" width="2" height="6" fill="#000000" />
<rect x="150" y="46" width="8" height="2" fill="#FFFFFF" />
<rect x="158" y="46" width="2" height="8" fill="#000000" />
<rect x="178" y="46" width="2" height="10" fill="#FFFFFF" />
<rect x="184" y="46" width="2" height="2" fill="#000000" />
<rect x="198" y="46" width="2" height="16" fill="#000000" />
<rect x="200" y="46" width="4" height="18" fill="#FFFFFF" />
<rect x="208" y="46" width="6" height="6" fill="#000000" />
<rect x="214" y="46" width="4" height="2" fill="#FFFFFF" />
<rect x="236" y="46" width="6" height="22" fill="#FFFFFF" />
<rect x="242" y="46" width="2" height="14" fill="#000000" />
<rect x="252" y="46" width="2" height="8" fill="#000000" />
<rect x="258" y="46" width="2" height="18" fill="#000000" />
<rect x="270" y="46" width="2" height="16" fill="#000000" />
<rect x="288" y="46" width="4" height="16" fill="#000000" />
<rect x="292" y="46" width="8" height="2" fill="#FFFFFF" />
<rect x="300" y="46" width="2" height="14" fill="#000000" />
<rect x="62" y="48" width="2" height="4" fill="#000000" />
<rect x="118" y="48" width="2" height="12" fill="#000000" />
<rect x="120" y="48" width="6" height="18" fill="#FFFFFF" />
<rect x="144" y="48" width="4" height="6" fill="#000000" />
<rect x="150" y="48" width="2" height="2" fill="#000000" />
<rect x="152" y="48" width="4" height="2" fill="#FFFFFF" />
<rect x="156" y="48" width="2" height="6" fill="#000000" />
<rect x="174" y="48" width="2" height="2" fill="#000000" />
<rect x="176" y="48" width="2" height="6" fill="#FFFFFF" />
<rect x="184" y="48" width="4" height="24" fill="#FFFFFF" />
<rect x="214" y="48" width="2" height="2" fill="#000000" />
<rect x="216" y="48" width="4" height="2" fill="#FFFFFF" />
<rect x="220" y="48" width="4" height="12" fill="#000000" />
<rect x="226" y="48" width="6" height="14" fill="#000000" />
<rect x="232" y="48" width="4" height="2" fill="#FFFFFF" />
<rect x="244" y="48" width="4" height="6" fill="#000000" />
<rect x="248" y="48" width="2" height="2" fill="#FFFFFF" />
<rect x="250" y="48" width="2" height="6" fill="#000000" />
<rect x="260" y="48" width="2" height="14" fill="#000000" />
<rect x="292" y="48" width="2" height="12" fill="#000000" />
<rect x="294" y="48" width="6" height="18" fill="#FFFFFF" />
<rect x="44" y="50" width="2" height="2" fill="#000000" />
<rect x="46" y="50" width="8" height="8" fill="#FFFFFF" />
<rect x="64" y="50" width="8" height="8" fill="#FFFFFF" />
<rect x="150" y="50" width="4" height="2" fill="#FFFFFF" />
<rect x="154" y="50" width="2" height="4" fill="#000000" />
<rect x="174" y="50" width="2" height="4" fill="#FFFFFF" />
<rect x="188" y="50" width="4" height="22" fill="#FFFFFF" />
<rect x="192" y="50" width="2" height="2" fill="#000000" />
<rect x="214" y="50" width="4" height="2" fill="#FFFFFF" />
<rect x="218" y="50" width="2" height="10" fill="#000000" />
<rect x="232" y="50" width="2" height="10" fill="#000000" />
<rect x="234" y="50" width="2" height="16" fill="#FFFFFF" />
<rect x="248" y="50" width="2" height="4" fill="#000000" />
<rect x="302" y="50" width="2" height="12" fill="#000000" />
<rect x="40" y="52" width="2" height="2" fill="#000000" />
<rect x="42" y="52" width="4" height="4" fill="#FFFFFF" />
<rect x="54" y="52" width="2" height="4" fill="#FFFFFF" />
<rect x="56" y="52" width="2" height="14" fill="#000000" />
<rect x="62" y="52" width="2" height="4" fill="#FFFFFF" />
<rect x="72" y="52" width="4" height="4" fill="#FFFFFF" />
<rect x="148" y="52" width="4" height="4" fill="#FFFFFF" />
<rect x="152" y="52" width="2" height="2" fill="#000000" />
<rect x="192" y="52" width="2" height="2" fill="#FFFFFF" />
<rect x="208" y="52" width="2" height="2" fill="#000000" />
<rect x="210" y="52" width="4" height="2" fill="#FFFFFF" />
<rect x="214" y="52" width="4" height="10" fill="#000000" />
<rect x="40" y="54" width="2" height="2" fill="#FFFFFF" />
<rect x="76" y="54" width="2" height="2" fill="#FFFFFF" />
<rect x="78" y="54" width="2" height="10" fill="#000000" />
<rect x="134" y="54" width="2" height="4" fill="#FFFFFF" />
<rect x="144" y="54" width="4" height="4" fill="#FFFFFF" />
<rect x="152" y="54" width="8" height="12" fill="#FFFFFF" />
<rect x="174" y="54" width="4" height="14" fill="#000000" />
<rect x="192" y="54" width="2" height="14" fill="#000000" />
<rect x="208" y="54" width="2" height="2" fill="#FFFFFF" />
<rect x="210" y="54" width="4" height="6" fill="#000000" />
<rect x="244" y="54" width="2" height="6" fill="#000000" />
<rect x="34" y="56" width="2" height="8" fill="#FFFFFF" />
<rect x="40" y="56" width="4" height="12" fill="#000000" />
<rect x="44" y="56" width="2" height="2" fill="#FFFFFF" />
<rect x="54" y="56" width="2" height="10" fill="#000000" />
<rect x="62" y="56" width="2" height="10" fill="#000000" />
<rect x="72" y="56" width="2" height="2" fill="#FFFFFF" />
<rect x="74" y="56" width="4" height="12" fill="#000000" />
<rect x="80" y="56" width="2" height="4" fill="#000000" />
<rect x="82" y="56" width="2" height="8" fill="#FFFFFF" />
<rect x="148" y="56" width="2" height="4" fill="#000000" />
<rect x="150" y="56" width="2" height="2" fill="#FFFFFF" />
<rect x="178" y="56" width="6" height="12" fill="#000000" />
<rect x="208" y="56" width="2" height="2" fill="#000000" />
<rect x="246" y="56" width="4" height="6" fill="#000000" />
<rect x="304" y="56" width="2" height="8" fill="#000000" />
<rect x="44" y="58" width="10" height="8" fill="#000000" />
<rect x="64" y="58" width="10" height="8" fill="#000000" />
<rect x="134" y="58" width="6" height="2" fill="#000000" />
<rect x="140" y="58" width="6" height="10" fill="#FFFFFF" />
<rect x="146" y="58" width="2" height="2" fill="#000000" />
<rect x="150" y="58" width="2" height="4" fill="#000000" />
<rect x="208" y="58" width="2" height="8" fill="#FFFFFF" />
<rect x="250" y="58" width="2" height="10" fill="#000000" />
<rect x="256" y="58" width="2" height="14" fill="#000000" />
<rect x="306" y="58" width="2" height="14" fill="#000000" />
<rect x="36" y="60" width="2" height="8" fill="#FFFFFF" />
<rect x="80" y="60" width="2" height="8" fill="#FFFFFF" />
<rect x="118" y="60" width="2" height="8" fill="#FFFFFF" />
<rect x="126" y="60" width="2" height="10" fill="#FFFFFF" />
<rect x="134" y="60" width="4" height="2" fill="#000000" />
<rect x="138" y="60" width="2" height="10" fill="#FFFFFF" />
<rect x="146" y="60" width="4" height="8" fill="#FFFFFF" />
<rect x="210" y="60" width="4" height="8" fill="#FFFFFF" />
<rect x="218" y="60" width="6" height="6" fill="#FFFFFF" />
<rect x="232" y="60" width="2" height="6" fill="#FFFFFF" />
<rect x="242" y="60" width="4" height="6" fill="#FFFFFF" />
<rect x="254" y="60" width="2" height="10" fill="#000000" />
<rect x="292" y="60" width="2" height="8" fill="#FFFFFF" />
<rect x="300" y="60" width="2" height="10" fill="#FFFFFF" />
<rect x="308" y="60" width="2" height="10" fill="#000000" />
<rect x="114" y="62" width="4" height="6" fill="#FFFFFF" />
<rect x="128" y="62" width="2" height="6" fill="#FFFFFF" />
<rect x="134" y="62" width="2" height="2" fill="#000000" />
<rect x="136" y="62" width="2" height="8" fill="#FFFFFF" />
<rect x="150" y="62" width="2" height="8" fill="#FFFFFF" />
<rect x="198" y="62" width="2" height="4" fill="#FFFFFF" />
<rect x="214" y="62" width="4" height="6" fill="#FFFFFF" />
<rect x="224" y="62" width="2" height="2" fill="#FFFFFF" />
<rect x="226" y="62" width="4" height="8" fill="#000000" />
<rect x="230" y="62" width="2" height="2" fill="#FFFFFF" />
<rect x="246" y="62" width="2" height="2" fill="#FFFFFF" />
<rect x="248" y="62" width="2" height="8" fill="#000000" />
<rect x="260" y="62" width="2" height="6" fill="#FFFFFF" />
<rect x="270" y="62" width="2" height="4" fill="#FFFFFF" />
<rect x="288" y="62" width="4" height="6" fill="#FFFFFF" />
<rect x="302" y="62" width="2" height="6" fill="#FFFFFF" />
<rect x="34" y="64" width="2" height="22" fill="#000000" />
<rect x="38" y="64" width="2" height="8" fill="#FFFFFF" />
<rect x="78" y="64" width="2" height="8" fill="#FFFFFF" />
<rect x="82" y="64" width="2" height="6" fill="#000000" />
<rect x="110" y="64" width="4" height="6" fill="#FFFFFF" />
<rect x="130" y="64" width="2" height="2" fill="#FFFFFF" />
<rect x="132" y="64" width="2" height="10" fill="#000000" />
<rect x="134" y="64" width="2" height="6" fill="#FFFFFF" />
<rect x="200" y="64" width="2" height="2" fill="#FFFFFF" />
<rect x="202" y="64" width="4" height="6" fill="#000000" />
<rect x="206" y="64" width="2" height="2" fill="#FFFFFF" />
<rect x="224" y="64" width="2" height="6" fill="#000000" />
<rect x="230" y="64" width="2" height="6" fill="#000000" />
<rect x="246" y="64" width="2" height="6" fill="#000000" />
<rect x="258" y="64" width="2" height="2" fill="#FFFFFF" />
<rect x="272" y="64" width="2" height="2" fill="#FFFFFF" />
<rect x="284" y="64" width="4" height="6" fill="#FFFFFF" />
<rect x="304" y="64" width="2" height="2" fill="#FFFFFF" />
<rect x="44" y="66" width="8" height="2" fill="#000000" />
<rect x="52" y="66" width="14" height="8" fill="#FFFFFF" />
<rect x="66" y="66" width="8" height="2" fill="#000000" />
<rect x="104" y="66" width="2" height="14" fill="#000000" />
<rect x="120" y="66" width="2" height="8" fill="#000000" />
<rect x="122" y="66" width="4" height="2" fill="#FFFFFF" />
<rect x="130" y="66" width="2" height="8" fill="#000000" />
<rect x="152" y="66" width="4" height="2" fill="#FFFFFF" />
<rect x="156" y="66" width="4" height="6" fill="#000000" />
<rect x="198" y="66" width="4" height="4" fill="#000000" />
<rect x="206" y="66" width="4" height="6" fill="#000000" />
<rect x="218" y="66" width="2" height="2" fill="#FFFFFF" />
<rect x="220" y="66" width="4" height="6" fill="#000000" />
<rect x="232" y="66" width="4" height="6" fill="#000000" />
<rect x="242" y="66" width="4" height="6" fill="#000000" />
<rect x="258" y="66" width="2" height="6" fill="#000000" />
<rect x="270" y="66" width="4" height="6" fill="#000000" />
<rect x="278" y="66" width="2" height="8" fill="#000000" />
<rect x="294" y="66" width="2" height="8" fill="#000000" />
<rect x="296" y="66" width="4" height="2" fill="#FFFFFF" />
<rect x="304" y="66" width="2" height="8" fill="#000000" />
<rect x="36" y="68" width="2" height="20" fill="#000000" />
<rect x="40" y="68" width="2" height="6" fill="#FFFFFF" />
<rect x="42" y="68" width="8" height="2" fill="#000000" />
<rect x="50" y="68" width="2" height="8" fill="#FFFFFF" />
<rect x="66" y="68" width="2" height="8" fill="#FFFFFF" />
<rect x="68" y="68" width="8" height="2" fill="#000000" />
<rect x="76" y="68" width="2" height="6" fill="#FFFFFF" />
<rect x="80" y="68" width="2" height="4" fill="#000000" />
<rect x="106" y="68" width="2" height="6" fill="#000000" />
<rect x="114" y="68" width="2" height="2" fill="#FFFFFF" />
<rect x="116" y="68" width="4" height="6" fill="#000000" />
<rect x="122" y="68" width="2" height="6" fill="#000000" />
<rect x="124" y="68" width="2" height="2" fill="#FFFFFF" />
<rect x="128" y="68" width="2" height="6" fill="#000000" />
<rect x="140" y="68" width="2" height="2" fill="#FFFFFF" />
<rect x="142" y="68" width="6" height="6" fill="#000000" />
<rect x="148" y="68" width="2" height="2" fill="#FFFFFF" />
<rect x="152" y="68" width="4" height="6" fill="#000000" />
<rect x="164" y="68" width="2" height="2" fill="#FFFFFF" />
<rect x="174" y="68" width="2" height="2" fill="#FFFFFF" />
<rect x="176" y="68" width="6" height="6" fill="#000000" />
<rect x="182" y="68" width="2" height="2" fill="#FFFFFF" />
<rect x="192" y="68" width="2" height="2" fill="#FFFFFF" />
<rect x="210" y="68" width="2" height="6" fill="#000000" />
<rect x="212" y="68" width="4" height="2" fill="#FFFFFF" />
<rect x="216" y="68" width="4" height="6" fill="#000000" />
<rect x="236" y="68" width="2" height="6" fill="#000000" />
<rect x="238" y="68" width="2" height="2" fill="#FFFFFF" />
<rect x="240" y="68" width="2" height="6" fill="#000000" />
<rect x="260" y="68" width="4" height="6" fill="#000000" />
<rect x="264" y="68" width="4" height="2" fill="#FFFFFF" />
<rect x="268" y="68" width="2" height="6" fill="#000000" />
<rect x="280" y="68" width="2" height="6" fill="#000000" />
<rect x="288" y="68" width="2" height="2" fill="#FFFFFF" />
<rect x="290" y="68" width="4" height="6" fill="#000000" />
<rect x="296" y="68" width="2" height="6" fill="#000000" />
<rect x="298" y="68" width="2" height="2" fill="#FFFFFF" />
<rect x="302" y="68" width="2" height="6" fill="#000000" />
<rect x="42" y="70" width="6" height="2" fill="#000000" />
<rect x="48" y="70" width="2" height="4" fill="#FFFFFF" />
<rect x="68" y="70" width="2" height="4" fill="#FFFFFF" />
<rect x="70" y="70" width="6" height="2" fill="#000000" />
<rect x="82" y="70" width="2" height="8" fill="#FFFFFF" />
<rect x="96" y="70" width="2" height="10" fill="#FFFFFF" />
<rect x="108" y="70" width="8" height="4" fill="#000000" />
<rect x="124" y="70" width="4" height="4" fill="#000000" />
<rect x="134" y="70" width="8" height="4" fill="#000000" />
<rect x="148" y="70" width="4" height="4" fill="#000000" />
<rect x="164" y="70" width="2" height="6" fill="#000000" />
<rect x="174" y="70" width="2" height="8" fill="#000000" />
<rect x="182" y="70" width="2" height="8" fill="#000000" />
<rect x="192" y="70" width="2" height="6" fill="#000000" />
<rect x="212" y="70" width="4" height="4" fill="#000000" />
<rect x="238" y="70" width="2" height="4" fill="#000000" />
<rect x="264" y="70" width="4" height="4" fill="#000000" />
<rect x="282" y="70" width="8" height="4" fill="#000000" />
<rect x="298" y="70" width="4" height="4" fill="#000000" />
<rect x="38" y="72" width="2" height="8" fill="#000000" />
<rect x="42" y="72" width="2" height="4" fill="#FFFFFF" />
<rect x="44" y="72" width="4" height="2" fill="#000000" />
<rect x="70" y="72" width="4" height="2" fill="#000000" />
<rect x="74" y="72" width="2" height="4" fill="#FFFFFF" />
<rect x="78" y="72" width="2" height="2" fill="#000000" />
<rect x="80" y="72" width="2" height="6" fill="#FFFFFF" />
<rect x="98" y="72" width="2" height="6" fill="#FFFFFF" />
<rect x="166" y="72" width="4" height="6" fill="#000000" />
<rect x="170" y="72" width="2" height="2" fill="#FFFFFF" />
<rect x="172" y="72" width="2" height="6" fill="#000000" />
<rect x="184" y="72" width="2" height="6" fill="#000000" />
<rect x="186" y="72" width="2" height="2" fill="#FFFFFF" />
<rect x="188" y="72" width="4" height="6" fill="#000000" />
<rect x="208" y="72" width="2" height="2" fill="#000000" />
<rect x="234" y="72" width="2" height="2" fill="#000000" />
<rect x="242" y="72" width="2" height="2" fill="#000000" />
<rect x="270" y="72" width="2" height="2" fill="#000000" />
<rect x="40" y="74" width="2" height="8" fill="#000000" />
<rect x="44" y="74" width="2" height="4" fill="#FFFFFF" />
<rect x="46" y="74" width="4" height="2" fill="#000000" />
<rect x="52" y="74" width="2" height="2" fill="#FFFFFF" />
<rect x="54" y="74" width="10" height="8" fill="#000000" />
<rect x="64" y="74" width="2" height="2" fill="#FFFFFF" />
<rect x="68" y="74" width="4" height="2" fill="#000000" />
<rect x="72" y="74" width="2" height="4" fill="#FFFFFF" />
<rect x="76" y="74" width="2" height="8" fill="#000000" />
<rect x="78" y="74" width="2" height="2" fill="#FFFFFF" />
<rect x="100" y="74" width="2" height="2" fill="#FFFFFF" />
<rect x="170" y="74" width="2" height="4" fill="#000000" />
<rect x="176" y="74" width="2" height="2" fill="#000000" />
<rect x="180" y="74" width="2" height="2" fill="#000000" />
<rect x="186" y="74" width="2" height="4" fill="#000000" />
<rect x="42" y="76" width="2" height="8" fill="#000000" />
<rect x="46" y="76" width="2" height="4" fill="#FFFFFF" />
<rect x="48" y="76" width="6" height="2" fill="#000000" />
<rect x="64" y="76" width="6" height="2" fill="#000000" />
<rect x="70" y="76" width="2" height="4" fill="#FFFFFF" />
<rect x="74" y="76" width="2" height="8" fill="#000000" />
<rect x="78" y="76" width="2" height="6" fill="#000000" />
<rect x="100" y="76" width="2" height="8" fill="#000000" />
<rect x="44" y="78" width="2" height="8" fill="#000000" />
<rect x="48" y="78" width="2" height="4" fill="#FFFFFF" />
<rect x="50" y="78" width="4" height="2" fill="#000000" />
<rect x="64" y="78" width="4" height="2" fill="#000000" />
<rect x="68" y="78" width="2" height="4" fill="#FFFFFF" />
<rect x="72" y="78" width="2" height="8" fill="#000000" />
<rect x="80" y="78" width="4" height="6" fill="#000000" />
<rect x="98" y="78" width="2" height="8" fill="#000000" />
<rect x="20" y="80" width="2" height="10" fill="#000000" />
<rect x="46" y="80" width="2" height="8" fill="#000000" />
<rect x="50" y="80" width="2" height="4" fill="#FFFFFF" />
<rect x="52" y="80" width="2" height="2" fill="#000000" />
<rect x="64" y="80" width="2" height="2" fill="#000000" />
<rect x="66" y="80" width="2" height="4" fill="#FFFFFF" />
<rect x="70" y="80" width="2" height="8" fill="#000000" />
<rect x="84" y="80" width="4" height="6" fill="#000000" />
<rect x="96" y="80" width="2" height="8" fill="#000000" />
<rect x="38" y="82" width="2" height="12" fill="#000000" />
<rect x="48" y="82" width="2" height="8" fill="#000000" />
<rect x="52" y="82" width="4" height="4" fill="#FFFFFF" />
<rect x="56" y="82" width="6" height="2" fill="#000000" />
<rect x="62" y="82" width="4" height="4" fill="#FFFFFF" />
<rect x="68" y="82" width="2" height="8" fill="#000000" />
<rect x="88" y="82" width="4" height="6" fill="#000000" />
<rect x="92" y="82" width="2" height="2" fill="#FFFFFF" />
<rect x="94" y="82" width="2" height="6" fill="#000000" />
<rect x="22" y="84" width="2" height="6" fill="#000000" />
<rect x="24" y="84" width="2" height="2" fill="#FFFFFF" />
<rect x="40" y="84" width="2" height="10" fill="#000000" />
<rect x="50" y="84" width="2" height="6" fill="#000000" />
<rect x="56" y="84" width="6" height="4" fill="#FFFFFF" />
<rect x="66" y="84" width="2" height="6" fill="#000000" />
<rect x="92" y="84" width="2" height="4" fill="#000000" />
<rect x="24" y="86" width="4" height="6" fill="#000000" />
<rect x="28" y="86" width="2" height="2" fill="#FFFFFF" />
<rect x="34" y="86" width="2" height="4" fill="#FFFFFF" />
<rect x="52" y="86" width="4" height="6" fill="#000000" />
<rect x="62" y="86" width="4" height="6" fill="#000000" />
<rect x="28" y="88" width="4" height="6" fill="#000000" />
<rect x="36" y="88" width="2" height="2" fill="#FFFFFF" />
<rect x="56" y="88" width="6" height="4" fill="#000000" />
<rect x="32" y="90" width="6" height="4" fill="#000000" />
</svg>